<svg width="45" height="35" viewBox="0 0 45 35" fill="none" xmlns="http://www.w3.org/2000/svg">
<path d="M34.3078 28.3034C34.2553 27.8936 34.1083 27.5016 33.8786 27.1583C33.6488 26.8149 33.3424 26.5296 32.9837 26.3248L24.7295 21.5714C24.2166 21.2766 23.6209 21.1589 23.0344 21.2365C22.4479 21.314 21.9032 21.5825 21.4845 22.0004L19.3492 24.1371C19.1461 24.3398 18.8752 24.46 18.5887 24.4745C18.3022 24.489 18.0206 24.3967 17.7982 24.2155C16.5107 23.1735 15.2793 22.0642 14.109 20.8921C12.937 19.7219 11.8277 18.4904 10.7857 17.203C10.6045 16.9806 10.5122 16.6989 10.5267 16.4125C10.5412 16.126 10.6614 15.855 10.864 15.652L13.0008 13.5153C13.4184 13.0967 13.6867 12.5523 13.7642 11.9661C13.8417 11.3799 13.7242 10.7844 13.4298 10.2716L8.67503 2.01477C8.47013 1.65604 8.18479 1.34975 7.84146 1.11999C7.49812 0.890222 7.10616 0.743254 6.6964 0.690645C6.28722 0.634935 5.87069 0.674989 5.47961 0.807652C5.08854 0.940316 4.73361 1.16197 4.44278 1.45514L1.99253 3.90677C-1.50547 7.40477 2.14515 16.5361 10.3044 24.6954C16.3682 30.7591 22.9682 34.3341 27.3957 34.3328C28.9247 34.3328 30.1952 33.9065 31.0944 33.0073L33.5433 30.557C33.8366 30.266 34.0583 29.9108 34.1909 29.5195C34.3236 29.1282 34.3636 28.7114 34.3078 28.302V28.3034ZM32.6317 29.6454L32.3058 29.9726L25.2355 25.9384C25.0878 25.8632 24.9168 25.8477 24.758 25.8953C24.5992 25.9428 24.4648 26.0497 24.3827 26.1937C24.3006 26.3377 24.2771 26.5078 24.3171 26.6687C24.3571 26.8296 24.4575 26.9689 24.5975 27.0576L31.3612 30.9173L30.1814 32.0956C28.8545 33.4239 26.1155 33.3593 22.6698 31.9169C18.9903 30.3796 14.923 27.4894 11.216 23.7838C7.50903 20.0768 4.62015 16.0095 3.0829 12.33C1.64053 8.88427 1.57453 6.14527 2.90415 4.8184L4.16228 3.55889L4.60915 4.33577C4.65141 4.40917 4.7077 4.47353 4.77483 4.52517C4.84195 4.57682 4.9186 4.61473 5.00037 4.63676C5.08215 4.65878 5.16747 4.66449 5.25145 4.65354C5.33544 4.64259 5.41644 4.61521 5.48984 4.57296C5.56324 4.5307 5.6276 4.47441 5.67925 4.40728C5.73089 4.34016 5.76881 4.26352 5.79083 4.18174C5.81286 4.09996 5.81856 4.01464 5.80761 3.93066C5.79666 3.84667 5.76928 3.76567 5.72703 3.69227L5.1069 2.61564L5.3544 2.36814C5.5057 2.21544 5.69039 2.09994 5.89392 2.03075C6.09744 1.96155 6.31426 1.94055 6.52728 1.96939C6.96315 2.02714 7.33853 2.27877 7.55853 2.65964L12.3119 10.9151C12.6268 11.4638 12.5347 12.1568 12.0878 12.6036L11.3068 13.3846L7.10478 6.08477C7.01945 5.93653 6.87872 5.82826 6.71356 5.78378C6.5484 5.7393 6.37233 5.76225 6.22409 5.84758C6.07585 5.93292 5.96758 6.07364 5.9231 6.2388C5.87862 6.40396 5.90157 6.58003 5.9869 6.72827L10.3635 14.3293L9.95103 14.7418C9.52315 15.1694 9.26892 15.7405 9.23743 16.3446C9.20594 16.9487 9.39943 17.5431 9.78053 18.0129C10.8514 19.3359 11.9915 20.6013 13.196 21.8038C14.399 23.0084 15.6648 24.1485 16.9883 25.2193C17.4583 25.6005 18.0529 25.794 18.6573 25.7625C19.2616 25.731 19.8329 25.4768 20.2608 25.0488L20.5578 24.7518L22.1487 25.6593C22.2221 25.7017 22.3031 25.7292 22.3872 25.7401C22.4713 25.7511 22.5567 25.7452 22.6385 25.723C22.7203 25.7008 22.7969 25.6625 22.8639 25.6105C22.9308 25.5585 22.9868 25.4938 23.0287 25.42C23.0707 25.3464 23.0978 25.2653 23.1084 25.1813C23.1191 25.0972 23.113 25.0119 23.0907 24.9302C23.0683 24.8484 23.0301 24.7719 22.9782 24.705C22.9262 24.638 22.8616 24.582 22.788 24.54L21.5024 23.8071L22.3962 22.9134C22.614 22.6959 22.8973 22.5562 23.2025 22.5156C23.5076 22.4751 23.8176 22.5362 24.0847 22.6893L32.3415 27.4426C32.7224 27.6626 32.974 28.0366 33.0304 28.4725C33.0592 28.6855 33.0382 28.9024 32.9691 29.1059C32.8999 29.3094 32.7844 29.4941 32.6317 29.6454Z" fill="#F66B6A"/>
<path d="M21.2852 17.2044H16.4562C16.6817 15.3207 17.8876 14.0419 19.1567 12.6958C20.5207 11.252 21.9301 9.75741 21.9301 7.51341C21.929 6.61191 21.5704 5.74765 20.9329 5.11019C20.2954 4.47273 19.4312 4.11413 18.5297 4.11304C17.6279 4.11376 16.7633 4.47221 16.1256 5.1097C15.4878 5.7472 15.129 6.61167 15.1279 7.51341C15.1279 7.68444 15.1959 7.84847 15.3168 7.96941C15.4377 8.09034 15.6018 8.15829 15.7728 8.15829C15.9438 8.15829 16.1079 8.09034 16.2288 7.96941C16.3497 7.84847 16.4177 7.68444 16.4177 7.51341C16.4177 6.34879 17.3651 5.40279 18.5297 5.40279C19.6929 5.40279 20.6403 6.34879 20.6403 7.51341C20.6403 9.24591 19.5183 10.4339 18.2203 11.8117C16.7711 13.3475 15.1279 15.0883 15.1279 17.8479C15.1279 18.2054 15.4167 18.4942 15.7742 18.4942H21.2852C21.4562 18.4942 21.6202 18.4262 21.7412 18.3053C21.8621 18.1843 21.9301 18.0203 21.9301 17.8493C21.9301 17.6783 21.8621 17.5142 21.7412 17.3933C21.6202 17.2724 21.4562 17.2044 21.2852 17.2044Z" fill="#F66B6A"/>
<path d="M29.5531 13.76H28.8202V4.75648C28.8202 4.58545 28.7522 4.42142 28.6313 4.30049C28.5104 4.17955 28.3463 4.11161 28.1753 4.11161C28.0043 4.11161 27.8403 4.17955 27.7193 4.30049C27.5984 4.42142 27.5304 4.58545 27.5304 4.75648V13.7572H24.0971L25.3703 4.84723C25.3823 4.76336 25.3777 4.67794 25.3567 4.59586C25.3357 4.51377 25.2987 4.43663 25.2479 4.36883C25.1971 4.30103 25.1334 4.24391 25.0605 4.20072C24.9876 4.15753 24.9069 4.12912 24.8231 4.11711C24.7392 4.1051 24.6538 4.10973 24.5717 4.13073C24.4896 4.15174 24.4125 4.1887 24.3447 4.23952C24.2769 4.29034 24.2197 4.35401 24.1766 4.4269C24.1334 4.4998 24.105 4.58048 24.0929 4.66436L22.7152 14.3114C22.7024 14.4027 22.7094 14.4958 22.7356 14.5842C22.7618 14.6727 22.8066 14.7545 22.867 14.8242C22.9275 14.8938 23.0021 14.9498 23.086 14.9882C23.1698 15.0267 23.261 15.0467 23.3532 15.047H27.5318V17.8465C27.5318 17.9312 27.5485 18.015 27.5809 18.0933C27.6133 18.1715 27.6608 18.2426 27.7207 18.3025C27.7806 18.3624 27.8517 18.4099 27.9299 18.4423C28.0081 18.4747 28.092 18.4914 28.1767 18.4914C28.2614 18.4914 28.3452 18.4747 28.4235 18.4423C28.5017 18.4099 28.5728 18.3624 28.6327 18.3025C28.6926 18.2426 28.7401 18.1715 28.7725 18.0933C28.8049 18.015 28.8216 17.9312 28.8216 17.8465V15.047H29.5544C29.7255 15.047 29.8895 14.979 30.0104 14.8581C30.1314 14.7372 30.1993 14.5731 30.1993 14.4021C30.1993 14.2311 30.1314 14.0671 30.0104 13.9461C29.8895 13.8252 29.7255 13.7572 29.5544 13.7572L29.5531 13.76Z" fill="#F66B6A"/>
<path d="M44.5435 4.37704C44.4835 4.29512 44.4051 4.22852 44.3145 4.18264C44.224 4.13677 44.1238 4.11292 44.0223 4.11304H39.1988C39.0278 4.11304 38.8638 4.18098 38.7428 4.30192C38.6219 4.42285 38.554 4.58688 38.554 4.75791C38.554 4.92894 38.6219 5.09297 38.7428 5.21391C38.8638 5.33485 39.0278 5.40279 39.1988 5.40279H43.1423L39.2745 17.654C39.2276 17.8157 39.2457 17.9893 39.3251 18.1377C39.4045 18.2861 39.5387 18.3977 39.6992 18.4485C39.8597 18.4993 40.0336 18.4853 40.1839 18.4096C40.3343 18.3339 40.449 18.2024 40.5037 18.0432L44.637 4.95179C44.6672 4.85525 44.6744 4.75294 44.658 4.65312C44.6415 4.55329 44.6018 4.45872 44.5421 4.37704H44.5435Z" fill="#F66B6A"/>
<path d="M36.6164 2.06978C36.4519 2.02411 36.276 2.0455 36.1273 2.12927C35.9786 2.21303 35.8692 2.35234 35.823 2.51666L30.9995 19.7413C30.9576 19.9046 30.9813 20.0778 31.0655 20.2238C31.1498 20.3698 31.2878 20.477 31.4501 20.5225C31.6125 20.568 31.7861 20.5481 31.934 20.4671C32.0818 20.3861 32.1921 20.2504 32.2411 20.0892L37.0632 2.86453C37.086 2.78291 37.0925 2.6976 37.0823 2.61348C37.0721 2.52936 37.0454 2.44806 37.0038 2.37425C36.9622 2.30044 36.9064 2.23556 36.8397 2.18332C36.773 2.13108 36.6966 2.09249 36.615 2.06978H36.6164Z" fill="#F66B6A"/>
</svg>
