<svg width="48" height="35" viewBox="0 0 48 35" fill="none" xmlns="http://www.w3.org/2000/svg">
<path d="M10.4731 28.4456C10.0872 28.4456 9.71709 28.5988 9.44423 28.8717C9.17136 29.1446 9.01807 29.5147 9.01807 29.9006C9.01807 30.2864 9.17136 30.6565 9.44423 30.9294C9.71709 31.2023 10.0872 31.3556 10.4731 31.3556C10.859 31.3556 11.229 31.2023 11.5019 30.9294C11.7748 30.6565 11.9281 30.2864 11.9281 29.9006C11.9281 29.5147 11.7748 29.1446 11.5019 28.8717C11.229 28.5988 10.859 28.4456 10.4731 28.4456Z" fill="#F66B6A"/>
<path d="M40.5331 28.4456C40.1472 28.4456 39.7772 28.5988 39.5043 28.8717C39.2314 29.1446 39.0781 29.5147 39.0781 29.9006C39.0781 30.2864 39.2314 30.6565 39.5043 30.9294C39.7772 31.2023 40.1472 31.3556 40.5331 31.3556C40.919 31.3556 41.2891 31.2023 41.562 30.9294C41.8348 30.6565 41.9881 30.2864 41.9881 29.9006C41.9881 29.5147 41.8348 29.1446 41.562 28.8717C41.2891 28.5988 40.919 28.4456 40.5331 28.4456Z" fill="#F66B6A"/>
<path d="M45.978 17.446L41.07 15.811L37.9875 7.79655C37.7708 7.24008 37.3917 6.76168 36.8995 6.42355C36.4072 6.08541 35.8247 5.90318 35.2275 5.90055H22.521L22.506 5.72505C22.4761 5.36192 22.3103 5.02345 22.0417 4.77733C21.773 4.5312 21.4213 4.39557 21.057 4.39755H18.69V3.59505C18.6888 2.81104 18.3767 2.05951 17.8222 1.50527C17.2677 0.951038 16.516 0.639343 15.732 0.63855C14.9483 0.63974 14.1969 0.95161 13.6428 1.5058C13.0886 2.06 12.7767 2.8113 12.7755 3.59505V4.39605H10.41C10.0457 4.39407 9.69399 4.5297 9.42534 4.77583C9.15669 5.02195 8.99085 5.36042 8.961 5.72355L8.946 5.89905H1.455C1.06911 5.89905 0.699025 6.05234 0.42616 6.32521C0.153294 6.59807 0 6.96816 0 7.35405L0 27.6446C0 28.4456 0.6525 29.0995 1.455 29.0995H6.0855C5.96921 29.7423 5.99535 30.4027 6.16206 31.0343C6.32877 31.6658 6.632 32.2531 7.05037 32.7547C7.46874 33.2564 7.99206 33.6601 8.58343 33.9375C9.1748 34.2148 9.81982 34.3591 10.473 34.36C11.1263 34.3591 11.7715 34.2148 12.363 33.9374C12.9545 33.6599 13.4779 33.256 13.8963 32.7543C14.3147 32.2525 14.6179 31.665 14.7845 31.0332C14.9511 30.4015 14.977 29.7409 14.8605 29.098H36.1455C36.0292 29.7408 36.0553 30.4012 36.2221 31.0328C36.3888 31.6643 36.692 32.2516 37.1104 32.7532C37.5287 33.2549 38.0521 33.6586 38.6434 33.9359C39.2348 34.2133 39.8798 34.3576 40.533 34.3585C41.2043 34.3575 41.8666 34.2051 42.4709 33.9128C43.0751 33.6205 43.6057 33.1957 44.0231 32.67C44.4405 32.1443 44.7341 31.5313 44.8819 30.8765C45.0298 30.2218 45.0281 29.5421 44.877 28.888L46.365 28.1441C46.8571 27.9001 47.2711 27.5232 47.5601 27.0561C47.849 26.589 48.0014 26.0503 48 25.501V20.251C48.0002 19.6304 47.805 19.0254 47.4421 18.5219C47.0792 18.0184 46.5669 17.642 45.978 17.446ZM37.449 10.312L39.51 15.67H37.2825L35.4975 10.312H37.4475H37.449ZM35.799 15.67H30.012C29.8001 15.6697 29.597 15.5853 29.4471 15.4354C29.2973 15.2856 29.2129 15.0825 29.2125 14.8705V10.312H34.014L35.799 15.67ZM14.184 3.59505C14.184 2.74005 14.88 2.04405 15.735 2.04405C16.59 2.04405 17.286 2.74005 17.286 3.59505V4.39605H14.1825V3.59505H14.184ZM8.9895 21.6295L10.362 5.84805C10.3628 5.83585 10.3682 5.8244 10.3771 5.81603C10.386 5.80767 10.3978 5.80303 10.41 5.80305H12.7755V7.35405C12.7755 7.54063 12.8496 7.71957 12.9816 7.8515C13.1135 7.98343 13.2924 8.05755 13.479 8.05755C13.6656 8.05755 13.8445 7.98343 13.9764 7.8515C14.1084 7.71957 14.1825 7.54063 14.1825 7.35405V5.80305H17.2845V7.35405C17.2845 7.54063 17.3586 7.71957 17.4906 7.8515C17.6225 7.98343 17.8014 8.05755 17.988 8.05755C18.1746 8.05755 18.3535 7.98343 18.4855 7.8515C18.6174 7.71957 18.6915 7.54063 18.6915 7.35405V5.80305H21.057C21.0825 5.80305 21.102 5.82255 21.105 5.84805L22.4775 21.628C22.4775 21.6355 22.4775 21.6505 22.464 21.6655C22.449 21.6805 22.434 21.6805 22.428 21.6805H9.039C9.033 21.6805 9.018 21.6805 9.003 21.6655C8.9985 21.6608 8.99509 21.6551 8.99302 21.6489C8.99095 21.6427 8.99026 21.6361 8.991 21.6295H8.9895ZM10.473 32.9545C9.66313 32.9538 8.88664 32.6318 8.31384 32.0593C7.74104 31.4867 7.41869 30.7104 7.4175 29.9005C7.4175 28.216 8.7885 26.845 10.473 26.845C12.1575 26.845 13.527 28.216 13.527 29.9005C13.5258 30.7102 13.2037 31.4863 12.6312 32.0587C12.0587 32.6312 11.2826 32.9534 10.473 32.9545ZM40.533 32.9545C39.7234 32.9534 38.9473 32.6312 38.3748 32.0587C37.8023 31.4863 37.4802 30.7102 37.479 29.9005C37.479 28.216 38.8485 26.845 40.533 26.845C42.2175 26.845 43.5885 28.216 43.5885 29.9005C43.5873 30.7104 43.265 31.4867 42.6922 32.0593C42.1194 32.6318 41.3429 32.9538 40.533 32.9545ZM46.593 21.682H45.7935C45.6985 21.6777 45.6036 21.6926 45.5145 21.7259C45.4254 21.7593 45.344 21.8103 45.2752 21.876C45.2064 21.9417 45.1516 22.0206 45.1142 22.1081C45.0768 22.1955 45.0575 22.2897 45.0575 22.3848C45.0575 22.4799 45.0768 22.574 45.1142 22.6615C45.1516 22.749 45.2064 22.8279 45.2752 22.8936C45.344 22.9593 45.4254 23.0103 45.5145 23.0437C45.6036 23.077 45.6985 23.0919 45.7935 23.0875H46.5945V25.4995C46.5945 26.0921 46.2645 26.6245 45.7365 26.8885L44.3445 27.5845C43.9468 26.9302 43.3875 26.3891 42.7202 26.0135C42.0529 25.6378 41.3002 25.4402 40.5345 25.4395C38.8755 25.4395 37.428 26.3485 36.6585 27.694H14.3475C13.958 27.0099 13.3943 26.441 12.7139 26.045C12.0334 25.649 11.2603 25.4402 10.473 25.4395C8.8155 25.4395 7.368 26.3485 6.5985 27.694H1.4535C1.44103 27.6937 1.4292 27.6884 1.42052 27.6795C1.41184 27.6705 1.40699 27.6585 1.407 27.646V23.0875H5.2125C5.30752 23.0919 5.40244 23.077 5.49153 23.0437C5.58061 23.0103 5.66201 22.9593 5.73081 22.8936C5.7996 22.8279 5.85436 22.749 5.89177 22.6615C5.92919 22.574 5.94848 22.4799 5.94848 22.3848C5.94848 22.2897 5.92919 22.1955 5.89177 22.1081C5.85436 22.0206 5.7996 21.9417 5.73081 21.876C5.66201 21.8103 5.58061 21.7593 5.49153 21.7259C5.40244 21.6926 5.30752 21.6777 5.2125 21.682H1.4055V7.35405C1.4055 7.32855 1.428 7.30605 1.455 7.30605H8.823L7.5885 21.508C7.57172 21.7087 7.59669 21.9107 7.66184 22.1013C7.72699 22.2918 7.83091 22.4668 7.96704 22.6152C8.10317 22.7636 8.26857 22.8822 8.45281 22.9635C8.63704 23.0448 8.83612 23.087 9.0375 23.0875H22.428C22.6294 23.087 22.8286 23.0447 23.0129 22.9635C23.1972 22.8822 23.3627 22.7636 23.4989 22.6152C23.6352 22.4669 23.7392 22.2919 23.8046 22.1014C23.8699 21.9108 23.8951 21.7088 23.8785 21.508L22.6425 7.30605H35.2275C35.865 7.30605 36.447 7.70655 36.675 8.30055L36.9075 8.90655H28.509C28.3227 8.90655 28.144 8.98046 28.0121 9.11207C27.8802 9.24368 27.8059 9.42223 27.8055 9.60855V14.869C27.8055 16.0855 28.7955 17.0755 30.012 17.0755H40.419L45.534 18.781C46.167 18.991 46.5945 19.5835 46.5945 20.251V21.682H46.593Z" fill="#F66B6A"/>
<path d="M42.7875 21.682H26.2545C26.1595 21.6776 26.0646 21.6926 25.9755 21.7259C25.8864 21.7592 25.805 21.8103 25.7362 21.876C25.6674 21.9417 25.6127 22.0206 25.5753 22.1081C25.5378 22.1955 25.5186 22.2897 25.5186 22.3848C25.5186 22.4799 25.5378 22.574 25.5753 22.6615C25.6127 22.7489 25.6674 22.8279 25.7362 22.8936C25.805 22.9593 25.8864 23.0103 25.9755 23.0437C26.0646 23.077 26.1595 23.0919 26.2545 23.0875H42.7875C42.9683 23.0792 43.1389 23.0015 43.2639 22.8706C43.3888 22.7397 43.4586 22.5657 43.4586 22.3848C43.4586 22.2038 43.3888 22.0298 43.2639 21.8989C43.1389 21.7681 42.9683 21.6904 42.7875 21.682Z" fill="#F66B6A"/>
</svg>
