<svg width="38" height="41" viewBox="0 0 38 41" fill="none" xmlns="http://www.w3.org/2000/svg">
<path d="M37.4163 9.3259L19.2547 0.558242C19.0937 0.480586 18.9062 0.480586 18.7453 0.558242L0.583613 9.3259C0.381113 9.42363 0.252441 9.62871 0.252441 9.85355V31.1464C0.252441 31.3713 0.381113 31.5764 0.583613 31.6741L18.7452 40.4418C18.8256 40.4806 18.9128 40.5 18.9999 40.5C19.087 40.5 19.1742 40.4806 19.2547 40.4418L37.4163 31.6741C37.6188 31.5764 37.7474 31.3713 37.7474 31.1464V9.85363C37.7474 9.62863 37.6187 9.42371 37.4163 9.3259ZM18.9999 1.7366L35.8138 9.85355L30.9398 12.2065C30.9089 12.183 30.8763 12.1613 30.8406 12.144L14.141 4.0823L18.9999 1.7366ZM12.8177 4.7448L29.607 12.85L26.1684 14.51L9.38596 6.40816L12.8177 4.7448ZM29.9999 13.9615V20.0979L26.7879 21.6486V15.5121L29.9999 13.9615ZM36.5756 30.7788L19.5859 38.9805V18.9889L23.6385 17.0325C23.9299 16.8918 24.052 16.5416 23.9113 16.2501C23.7706 15.9588 23.4204 15.8364 23.1289 15.9772L18.9999 17.9706L17.3753 17.1862C17.0838 17.0454 16.7335 17.1677 16.5928 17.4591C16.4521 17.7505 16.5743 18.1008 16.8657 18.2415L18.414 18.9889V38.9805L1.42432 30.7786V10.7871L14.3618 17.0328C14.4439 17.0725 14.5307 17.0912 14.6161 17.0912C14.8339 17.0912 15.0431 16.9692 15.1442 16.7599C15.2849 16.4685 15.1627 16.1182 14.8713 15.9775L2.18611 9.85355L8.00682 7.04356L25.6079 15.5407C25.6105 15.5443 25.6134 15.5475 25.616 15.551V22.5821C25.616 22.7838 25.7197 22.9712 25.8905 23.0785C25.9853 23.138 26.0935 23.1681 26.202 23.1681C26.2889 23.1681 26.376 23.1488 26.4567 23.1098L30.8406 20.9935C31.0431 20.8957 31.1717 20.6907 31.1717 20.4658V13.3959L36.5756 10.7871V30.7788Z" fill="#F66B6A"/>
</svg>
