<svg width="40" height="41" viewBox="0 0 40 41" fill="none" xmlns="http://www.w3.org/2000/svg">
<path d="M39.7082 6.06505C39.7015 5.94135 39.6558 5.82295 39.5777 5.72683C39.4995 5.63072 39.3929 5.56183 39.2732 5.53005L20.4707 0.520047C20.3716 0.493643 20.2673 0.493643 20.1682 0.520047L1.39196 5.53005C1.27266 5.56198 1.16649 5.63078 1.08859 5.72663C1.0107 5.82248 0.965074 5.94048 0.958214 6.0638C0.945714 6.30005 0.664464 11.8875 2.86196 18.9513C4.15321 23.1038 6.03946 26.8938 8.46571 30.2188C11.502 34.3775 15.3957 37.8113 20.0382 40.425C20.1239 40.4732 20.2204 40.499 20.3187 40.5C20.417 40.5011 20.5139 40.4775 20.6007 40.4313C25.252 37.9613 29.152 34.6138 32.1932 30.485C34.6232 27.185 36.5107 23.3825 37.8032 19.185C40.002 12.0425 39.7207 6.30505 39.7082 6.0638V6.06505ZM36.6707 18.8788C35.4145 22.945 33.5857 26.6225 31.2345 29.81C28.492 33.5275 25.0245 36.5888 20.9195 38.9188V35.905C26.242 32.5438 30.257 27.7875 32.8507 21.76C34.9882 16.7975 35.6845 12.0863 35.892 9.0088C35.9012 8.87312 35.863 8.73845 35.7839 8.62786C35.7047 8.51726 35.5896 8.43761 35.4582 8.40255L34.2632 8.0838C34.1143 8.0476 33.9572 8.07111 33.8255 8.1493C33.6937 8.22749 33.5978 8.35414 33.5583 8.50216C33.5188 8.65017 33.5387 8.80778 33.6139 8.94125C33.6892 9.07472 33.8136 9.17345 33.9607 9.2163L34.6857 9.41005C34.447 12.3938 33.737 16.7375 31.7745 21.2975C29.2895 27.07 25.4557 31.6313 20.3795 34.86C19.8695 34.5225 19.3695 34.1725 18.8857 33.8125C18.7608 33.725 18.6067 33.6896 18.4561 33.7139C18.3055 33.7382 18.1703 33.8202 18.0792 33.9426C17.988 34.0649 17.9482 34.2179 17.9681 34.3692C17.988 34.5204 18.0661 34.6579 18.1857 34.7525C18.6907 35.1275 19.2145 35.495 19.7482 35.8463V38.9C15.6395 36.4425 12.1707 33.3 9.42821 29.55C7.07821 26.335 5.24946 22.6663 3.99446 18.645C2.18696 12.8563 2.09821 7.97505 2.11696 6.55005L19.747 1.84505V4.5213L5.21696 8.40005C5.08512 8.43519 4.96967 8.51521 4.89049 8.62633C4.81131 8.73745 4.77338 8.87271 4.78321 9.0088C4.93446 11.1263 5.36071 14.4213 6.53071 18.0913C8.46571 24.1613 11.7145 29.2238 16.1882 33.1413C16.2461 33.1923 16.3135 33.2313 16.3865 33.2561C16.4595 33.2809 16.5367 33.2909 16.6137 33.2857C16.6906 33.2805 16.7658 33.26 16.8348 33.2256C16.9038 33.1912 16.9653 33.1434 17.0157 33.085C17.1178 32.9681 17.1694 32.8154 17.159 32.6605C17.1487 32.5057 17.0774 32.3612 16.9607 32.2588C12.6495 28.4838 9.51696 23.5988 7.64821 17.7363C6.79068 15.0296 6.23481 12.2364 5.99071 9.40755L20.3195 5.58255L31.4282 8.5438C31.5035 8.56645 31.5825 8.57375 31.6606 8.56525C31.7388 8.55675 31.8144 8.53263 31.883 8.49432C31.9516 8.45601 32.0118 8.4043 32.0601 8.34225C32.1083 8.2802 32.1436 8.20909 32.1638 8.13314C32.184 8.0572 32.1887 7.97796 32.1777 7.90015C32.1666 7.82234 32.1401 7.74754 32.0996 7.6802C32.059 7.61286 32.0054 7.55435 31.9418 7.50816C31.8782 7.46196 31.806 7.42902 31.7295 7.4113L20.9207 4.5288V1.85255L38.5495 6.55005C38.5682 8.00005 38.4832 13.0113 36.6707 18.8788Z" fill="#F66B6A"/>
<path d="M29.1495 14.1926C28.9794 14.021 28.7768 13.8849 28.5537 13.7922C28.3305 13.6995 28.0912 13.6521 27.8495 13.6526C27.6079 13.6519 27.3686 13.6992 27.1455 13.7916C26.9223 13.8841 26.7198 14.02 26.5495 14.1913L19.0808 21.6601L15.0033 17.5826C14.8329 17.4115 14.6303 17.2758 14.4071 17.1836C14.184 17.0913 13.9447 17.0442 13.7033 17.0451C13.4618 17.0442 13.2225 17.0913 12.9994 17.1836C12.7762 17.2758 12.5736 17.4115 12.4033 17.5826C12.2319 17.7529 12.0961 17.9555 12.0036 18.1786C11.9112 18.4018 11.8639 18.641 11.8645 18.8826C11.8645 19.3738 12.0558 19.8363 12.402 20.1826L17.7808 25.5601C17.951 25.7315 18.1536 25.8673 18.3767 25.9598C18.5999 26.0523 18.8392 26.0995 19.0808 26.0988C19.3222 26.0997 19.5615 26.0527 19.7846 25.9604C20.0078 25.8681 20.2104 25.7325 20.3808 25.5613L29.1495 16.7926C29.497 16.4451 29.687 15.9826 29.687 15.4926C29.6879 15.2511 29.6408 15.0119 29.5485 14.7887C29.4563 14.5656 29.3206 14.3629 29.1495 14.1926ZM28.3208 15.9626L19.552 24.7313C19.4905 24.7939 19.4171 24.8435 19.3362 24.8774C19.2553 24.9113 19.1685 24.9287 19.0808 24.9287C18.993 24.9287 18.9062 24.9113 18.8253 24.8774C18.7444 24.8435 18.671 24.7939 18.6095 24.7313L13.232 19.3538C13.1696 19.2922 13.1201 19.2188 13.0863 19.138C13.0526 19.0571 13.0352 18.9703 13.0352 18.8826C13.0352 18.7949 13.0526 18.7081 13.0863 18.6272C13.1201 18.5463 13.1696 18.473 13.232 18.4113C13.2935 18.3488 13.3669 18.2992 13.4478 18.2653C13.5287 18.2314 13.6155 18.214 13.7033 18.214C13.791 18.214 13.8778 18.2314 13.9587 18.2653C14.0396 18.2992 14.113 18.3488 14.1745 18.4113L18.6658 22.9026C18.8958 23.1313 19.2658 23.1313 19.4945 22.9026L27.3783 15.0201C27.4399 14.9577 27.5133 14.9082 27.5942 14.8744C27.675 14.8406 27.7618 14.8232 27.8495 14.8232C27.9372 14.8232 28.024 14.8406 28.1049 14.8744C28.1858 14.9082 28.2591 14.9577 28.3208 15.0201C28.3831 15.0817 28.4326 15.1551 28.4664 15.236C28.5002 15.3169 28.5176 15.4037 28.5176 15.4913C28.5176 15.579 28.5002 15.6658 28.4664 15.7467C28.4326 15.8276 28.3831 15.901 28.3208 15.9626Z" fill="#F66B6A"/>
</svg>
